<mxfile host="app.diagrams.net" agent="Mozilla/5.0 (Windows NT 10.0; Win64; x64) AppleWebKit/537.36 (KHTML, like Gecko) Chrome/133.0.0.0 Safari/537.36" version="26.0.16">
  <diagram name="Página-1" id="WQQyuRtGMNJ7N2M4RpJi">
    <mxGraphModel grid="1" page="1" gridSize="10" guides="1" tooltips="1" connect="1" arrows="1" fold="1" pageScale="1" pageWidth="827" pageHeight="1169" math="0" shadow="0">
      <root>
        <mxCell id="0" />
        <mxCell id="1" parent="0" />
        <mxCell id="KdsFVDDeqMcxkz5gGwAH-15" value="" style="rounded=0;whiteSpace=wrap;html=1;" vertex="1" parent="1">
          <mxGeometry x="210" y="-50" width="300" height="360" as="geometry" />
        </mxCell>
        <mxCell id="KdsFVDDeqMcxkz5gGwAH-7" style="edgeStyle=orthogonalEdgeStyle;rounded=0;orthogonalLoop=1;jettySize=auto;html=1;exitX=0.5;exitY=0.5;exitDx=0;exitDy=0;exitPerimeter=0;entryX=0;entryY=0.5;entryDx=0;entryDy=0;" edge="1" parent="1" source="KdsFVDDeqMcxkz5gGwAH-1" target="KdsFVDDeqMcxkz5gGwAH-4">
          <mxGeometry relative="1" as="geometry" />
        </mxCell>
        <mxCell id="KdsFVDDeqMcxkz5gGwAH-8" style="edgeStyle=orthogonalEdgeStyle;rounded=0;orthogonalLoop=1;jettySize=auto;html=1;exitX=0.5;exitY=0.5;exitDx=0;exitDy=0;exitPerimeter=0;entryX=0;entryY=0.5;entryDx=0;entryDy=0;" edge="1" parent="1" source="KdsFVDDeqMcxkz5gGwAH-1" target="KdsFVDDeqMcxkz5gGwAH-5">
          <mxGeometry relative="1" as="geometry">
            <Array as="points">
              <mxPoint x="180" y="120" />
              <mxPoint x="180" y="215" />
            </Array>
          </mxGeometry>
        </mxCell>
        <mxCell id="KdsFVDDeqMcxkz5gGwAH-1" value="Fucinário" style="shape=umlActor;verticalLabelPosition=bottom;verticalAlign=top;html=1;" vertex="1" parent="1">
          <mxGeometry x="130" y="90" width="30" height="60" as="geometry" />
        </mxCell>
        <mxCell id="KdsFVDDeqMcxkz5gGwAH-12" style="edgeStyle=orthogonalEdgeStyle;rounded=0;orthogonalLoop=1;jettySize=auto;html=1;entryX=1;entryY=0.5;entryDx=0;entryDy=0;" edge="1" parent="1" source="KdsFVDDeqMcxkz5gGwAH-2" target="KdsFVDDeqMcxkz5gGwAH-10">
          <mxGeometry relative="1" as="geometry" />
        </mxCell>
        <mxCell id="KdsFVDDeqMcxkz5gGwAH-13" style="edgeStyle=orthogonalEdgeStyle;rounded=0;orthogonalLoop=1;jettySize=auto;html=1;entryX=1;entryY=0.5;entryDx=0;entryDy=0;" edge="1" parent="1" source="KdsFVDDeqMcxkz5gGwAH-2" target="KdsFVDDeqMcxkz5gGwAH-9">
          <mxGeometry relative="1" as="geometry" />
        </mxCell>
        <mxCell id="KdsFVDDeqMcxkz5gGwAH-14" style="edgeStyle=orthogonalEdgeStyle;rounded=0;orthogonalLoop=1;jettySize=auto;html=1;entryX=1;entryY=0.5;entryDx=0;entryDy=0;" edge="1" parent="1" source="KdsFVDDeqMcxkz5gGwAH-2" target="KdsFVDDeqMcxkz5gGwAH-11">
          <mxGeometry relative="1" as="geometry" />
        </mxCell>
        <mxCell id="KdsFVDDeqMcxkz5gGwAH-2" value="Sistema" style="shape=umlActor;verticalLabelPosition=bottom;verticalAlign=top;html=1;" vertex="1" parent="1">
          <mxGeometry x="570" y="90" width="30" height="60" as="geometry" />
        </mxCell>
        <mxCell id="KdsFVDDeqMcxkz5gGwAH-3" value="se cadastrar no sistema" style="ellipse;whiteSpace=wrap;html=1;" vertex="1" parent="1">
          <mxGeometry x="190" y="20" width="140" height="70" as="geometry" />
        </mxCell>
        <mxCell id="KdsFVDDeqMcxkz5gGwAH-4" value="Cadastrar produto no sistema" style="ellipse;whiteSpace=wrap;html=1;" vertex="1" parent="1">
          <mxGeometry x="190" y="100" width="140" height="70" as="geometry" />
        </mxCell>
        <mxCell id="KdsFVDDeqMcxkz5gGwAH-5" value="Cadastrar venda" style="ellipse;whiteSpace=wrap;html=1;" vertex="1" parent="1">
          <mxGeometry x="190" y="180" width="140" height="70" as="geometry" />
        </mxCell>
        <mxCell id="KdsFVDDeqMcxkz5gGwAH-6" style="edgeStyle=orthogonalEdgeStyle;rounded=0;orthogonalLoop=1;jettySize=auto;html=1;exitX=0.5;exitY=0.5;exitDx=0;exitDy=0;exitPerimeter=0;entryX=0.033;entryY=0.748;entryDx=0;entryDy=0;entryPerimeter=0;" edge="1" parent="1" source="KdsFVDDeqMcxkz5gGwAH-1" target="KdsFVDDeqMcxkz5gGwAH-3">
          <mxGeometry relative="1" as="geometry" />
        </mxCell>
        <mxCell id="KdsFVDDeqMcxkz5gGwAH-9" value="Autenticar funcionário" style="ellipse;whiteSpace=wrap;html=1;" vertex="1" parent="1">
          <mxGeometry x="380" y="20" width="140" height="70" as="geometry" />
        </mxCell>
        <mxCell id="KdsFVDDeqMcxkz5gGwAH-10" value="guardar dados do produto" style="ellipse;whiteSpace=wrap;html=1;" vertex="1" parent="1">
          <mxGeometry x="380" y="100" width="140" height="70" as="geometry" />
        </mxCell>
        <mxCell id="KdsFVDDeqMcxkz5gGwAH-11" value="guardar dados da venda" style="ellipse;whiteSpace=wrap;html=1;" vertex="1" parent="1">
          <mxGeometry x="380" y="180" width="140" height="70" as="geometry" />
        </mxCell>
        <mxCell id="KdsFVDDeqMcxkz5gGwAH-16" value="sistema" style="text;html=1;align=center;verticalAlign=middle;whiteSpace=wrap;rounded=0;" vertex="1" parent="1">
          <mxGeometry x="330" y="-40" width="60" height="30" as="geometry" />
        </mxCell>
      </root>
    </mxGraphModel>
  </diagram>
</mxfile>
